<svg width="80" height="80" viewBox="0 0 80 80" fill="none" xmlns="http://www.w3.org/2000/svg">
<path d="M30.05 35.1669L28.1433 41.2535H34.4867L32.5433 35.1669C32.1637 33.9179 31.8192 32.6585 31.51 31.3902L31.2967 30.5469H31.2233L30.8433 32.0969C30.5967 33.1302 30.3433 34.2035 30.05 35.1669ZM50.99 36.4869C48.2033 36.4869 47.03 39.0169 46.8467 40.8502H54.6933C54.7267 39.2002 53.9933 36.4869 50.99 36.4869Z" fill="#FEF7EF"/>
<path fill-rule="evenodd" clip-rule="evenodd" d="M22.5667 10.2752C34.1534 8.99161 45.8465 8.99161 57.4333 10.2752C63.7633 10.9818 68.8667 15.9652 69.61 22.3185C70.9831 34.0674 70.9831 45.9363 69.61 57.6852C68.8667 64.0385 63.7633 69.0218 57.4367 69.7318C45.8488 71.0157 34.1546 71.0157 22.5667 69.7318C16.2367 69.0218 11.1333 64.0385 10.39 57.6885C9.01661 45.9385 9.01661 34.0685 10.39 22.3185C11.1333 15.9652 16.2367 10.9818 22.5667 10.2752ZM37.4933 51.6685L35.26 44.6652H27.4067L25.2833 51.6685H20.6267L28.5467 26.9552H34.3033L42.3367 51.6685H37.4933ZM58.9467 42.0985C58.9467 42.9418 58.8733 43.6018 58.8 44.0052H46.8467C46.9567 47.2318 49.4867 48.6252 52.3467 48.6252C54.4367 48.6252 55.94 48.3318 57.2967 47.8185L57.9567 50.9352C56.4167 51.5585 54.29 52.0718 51.7233 52.0718C45.93 52.0718 42.52 48.4785 42.52 43.0152C42.52 38.0652 45.5267 33.4085 51.2467 33.4085C57.0767 33.4085 58.9467 38.1752 58.9467 42.0985Z" fill="#FEF7EF"/>
</svg>
