<svg width="80" height="80" viewBox="0 0 80 80" fill="none" xmlns="http://www.w3.org/2000/svg">
<path d="M34.67 35.1669L32.7633 41.2535H39.1067L37.1633 35.1669C36.7767 33.9502 36.44 32.6135 36.13 31.3902L35.9167 30.5469H35.8433C35.7189 31.0402 35.5922 31.5569 35.4633 32.0969C35.2167 33.1302 34.96 34.2035 34.67 35.1669Z" fill="#FEF7EF"/>
<path fill-rule="evenodd" clip-rule="evenodd" d="M22.5667 10.2752C34.1534 8.99161 45.8465 8.99161 57.4333 10.2752C63.7633 10.9818 68.8667 15.9652 69.61 22.3185C70.9831 34.0674 70.9831 45.9363 69.61 57.6852C68.8667 64.0385 63.7633 69.0218 57.4367 69.7318C45.8488 71.0157 34.1546 71.0157 22.5667 69.7318C16.2367 69.0218 11.1333 64.0385 10.39 57.6885C9.01661 45.9385 9.01661 34.0685 10.39 22.3185C11.1333 15.9652 16.2367 10.9818 22.5667 10.2752ZM53.1067 33.8118V51.6685H48.56V33.8118H53.1067ZM48.3067 28.8252C48.3067 27.4318 49.33 26.3685 50.8333 26.3685C52.3767 26.3685 53.33 27.4318 53.3667 28.8252C53.3667 30.1818 52.3733 31.2452 50.8 31.2452C49.2967 31.2452 48.3067 30.1818 48.3067 28.8252ZM42.1133 51.6685L39.8767 44.6652H32.03L29.9033 51.6685H25.2467L33.1667 26.9552H38.9233L46.9533 51.6685H42.1133Z" fill="#FEF7EF"/>
</svg>
