<svg width="90" height="90" viewBox="0 0 90 90" fill="none" xmlns="http://www.w3.org/2000/svg">
<path d="M34.1227 33.9328C34.1227 28.8984 30.6985 28.8984 30.6985 28.8984H16.636V39.6914H29.8266C32.1047 39.6914 34.1227 38.9602 34.1227 33.9328ZM30.6985 47.1516H16.636V60.075H30.0657C32.0836 60.0188 35.8172 59.3719 35.8172 53.7891C35.7961 47.1094 30.6985 47.1516 30.6985 47.1516ZM66.7477 39.6914C59.2735 39.6914 58.2329 47.1445 58.2329 47.1445H74.1235C74.1235 47.1445 74.2219 39.6914 66.7477 39.6914Z" fill="#313131"/>
<path d="M78.2227 1.51953H11.7774C9.05665 1.51953 6.44733 2.60034 4.52347 4.5242C2.59961 6.44806 1.5188 9.05738 1.5188 11.7781V78.2164C1.5188 80.9372 2.59961 83.5465 4.52347 85.4703C6.44733 87.3942 9.05665 88.475 11.7774 88.475H78.2157C80.9364 88.475 83.5457 87.3942 85.4696 85.4703C87.3935 83.5465 88.4743 80.9372 88.4743 78.2164V11.7781C88.4743 9.0586 87.3944 6.45035 85.4721 4.52669C83.5497 2.60303 80.9422 1.5214 78.2227 1.51953ZM56.1516 23.1477H76.1063V29.1102H56.1516V23.1477ZM46.0618 54.3945C46.0618 69.1602 30.6985 68.675 30.6985 68.675H5.52661V20.3H30.6985C38.3485 20.3 44.3883 24.5188 44.3883 33.1813C44.3883 41.8438 37.0055 42.3852 37.0055 42.3852C46.7368 42.3852 46.0618 54.3945 46.0618 54.3945ZM83.3907 53.607H58.3594C58.3594 62.593 66.8743 62.0445 66.8743 62.0445C74.911 62.0445 74.6086 56.8414 74.6086 56.8414H83.1094C83.1094 70.6508 66.5579 69.7016 66.5579 69.7016C46.6946 69.7016 47.9743 51.2094 47.9743 51.2094C47.9743 51.2094 47.9743 32.6258 66.5579 32.6258C86.1399 32.6117 83.3977 53.607 83.3977 53.607H83.3907Z" fill="#313131"/>
</svg>
