<svg width="60" height="60" viewBox="0 0 60 60" fill="none" xmlns="http://www.w3.org/2000/svg">
<path d="M22.7484 22.6219C22.7484 19.2656 20.4656 19.2656 20.4656 19.2656H11.0906V26.4609H19.8844C21.4031 26.4609 22.7484 25.9734 22.7484 22.6219ZM20.4656 31.4344H11.0906V40.05H20.0438C21.3891 40.0125 23.8781 39.5813 23.8781 35.8594C23.8641 31.4063 20.4656 31.4344 20.4656 31.4344ZM44.4985 26.4609C39.5156 26.4609 38.8219 31.4297 38.8219 31.4297H49.4156C49.4156 31.4297 49.4813 26.4609 44.4985 26.4609Z" fill="#FEF7EF"/>
<path d="M52.1485 1.01172H7.85158C6.03774 1.01172 4.2982 1.73226 3.01563 3.01483C1.73305 4.29741 1.01251 6.03695 1.01251 7.85078V52.143C1.01251 53.9568 1.73305 55.6963 3.01563 56.9789C4.2982 58.2615 6.03774 58.982 7.85158 58.982H52.1438C53.9576 58.982 55.6971 58.2615 56.9797 56.9789C58.2623 55.6963 58.9828 53.9568 58.9828 52.143V7.85078C58.9828 6.03776 58.2629 4.29893 56.9814 3.01649C55.6998 1.73405 53.9615 1.01296 52.1485 1.01172ZM37.4344 15.4305H50.7375V19.4055H37.4344V15.4305ZM30.7078 36.2617C30.7078 46.1055 20.4656 45.782 20.4656 45.782H3.68439V13.532H20.4656C25.5656 13.532 29.5922 16.3445 29.5922 22.1195C29.5922 27.8945 24.6703 28.2555 24.6703 28.2555C31.1578 28.2555 30.7078 36.2617 30.7078 36.2617ZM55.5938 35.7367H38.9063C38.9063 41.7273 44.5828 41.3617 44.5828 41.3617C49.9406 41.3617 49.7391 37.893 49.7391 37.893H55.4063C55.4063 47.0992 44.3719 46.4664 44.3719 46.4664C31.1297 46.4664 31.9828 34.1383 31.9828 34.1383C31.9828 34.1383 31.9828 21.7492 44.3719 21.7492C57.4266 21.7398 55.5985 35.7367 55.5985 35.7367H55.5938Z" fill="#FEF7EF"/>
</svg>
