<svg width="80" height="80" viewBox="0 0 80 80" fill="none" xmlns="http://www.w3.org/2000/svg">
<path d="M15 56.25C15 59.6875 17.2438 62.5 20 62.5C20.5913 62.4873 21.1742 62.3563 21.7141 62.1148C22.254 61.8733 22.7401 61.5261 23.1437 61.0938C23.577 60.6355 24.1641 60.3531 24.7925 60.3007C25.421 60.2482 26.0467 60.4293 26.55 60.8094C26.8231 61.0255 27.048 61.2963 27.2104 61.6045C27.3727 61.9126 27.4689 62.2512 27.4927 62.5987C27.5166 62.9462 27.4675 63.2948 27.3488 63.6222C27.23 63.9496 27.0442 64.2486 26.8031 64.5C25.9337 65.4376 24.8816 66.1874 23.7117 66.7033C22.5417 67.2192 21.2786 67.4903 20 67.5C14.4844 67.5 10 62.4531 10 56.25C10 50.0469 14.4844 45 20 45C21.2488 45.0096 22.4831 45.2685 23.6304 45.7617C24.7778 46.2549 25.815 46.9723 26.6812 47.8719C27.1441 48.3172 27.4242 48.9191 27.467 49.56C27.5097 50.2008 27.312 50.8346 26.9125 51.3375C26.6865 51.606 26.4065 51.8239 26.0907 51.9771C25.7749 52.1302 25.4304 52.2152 25.0796 52.2264C24.7288 52.2376 24.3796 52.1748 24.0547 52.0421C23.7298 51.9094 23.4364 51.7098 23.1938 51.4563C22.7884 51.0091 22.2961 50.6493 21.747 50.3989C21.1978 50.1485 20.6034 50.0128 20 50C17.2438 50 15 52.8125 15 56.25ZM39.875 53.5344C38.625 53.1719 37.3313 52.8 36.6094 52.3344C36.2156 52.0812 36.225 52.0219 36.2594 51.7406C36.2641 51.5134 36.3233 51.2906 36.432 51.091C36.5408 50.8914 36.6959 50.7209 36.8844 50.5938C38.3219 49.6187 41.6812 50.0531 43.0812 50.4187C43.7227 50.5874 44.405 50.4943 44.9778 50.16C45.5507 49.8256 45.9673 49.2774 46.1359 48.6359C46.3046 47.9944 46.2115 47.3122 45.8772 46.7394C45.5428 46.1665 44.9946 45.7499 44.3531 45.5812C43.6906 45.4094 37.7906 43.95 34.0938 46.4437C33.3109 46.9684 32.6531 47.6589 32.167 48.4663C31.6809 49.2737 31.3785 50.1782 31.2812 51.1156C30.6562 56.0781 35.5437 57.4937 38.4688 58.3375C42.2406 59.4281 42.5719 59.875 42.4625 60.7094C42.3656 61.4625 42.0688 61.7531 41.7938 61.9375C40.3563 62.8937 37.0531 62.425 35.6844 62.05C35.0489 61.8814 34.3725 61.9699 33.8018 62.2965C33.2311 62.623 32.812 63.1612 32.6353 63.7945C32.4586 64.4278 32.5385 65.1052 32.8577 65.68C33.1768 66.2549 33.7096 66.6808 34.3406 66.8656C35.8895 67.2717 37.4832 67.4817 39.0844 67.4906C40.9062 67.4906 42.9281 67.1781 44.55 66.0969C45.3505 65.5649 46.0232 64.8623 46.5198 64.0393C47.0164 63.2164 47.3244 62.2937 47.4219 61.3375C48.125 55.9375 42.9625 54.4281 39.875 53.5344ZM59.875 53.5344C58.625 53.1719 57.3312 52.8 56.6094 52.3344C56.2188 52.0812 56.225 52.0219 56.2594 51.7406C56.2641 51.5134 56.3233 51.2906 56.4321 51.091C56.5408 50.8914 56.6959 50.7209 56.8844 50.5938C58.3219 49.6187 61.6781 50.0531 63.0781 50.4187C63.7196 50.5874 64.4018 50.4943 64.9747 50.16C65.5476 49.8256 65.9642 49.2774 66.1328 48.6359C66.3015 47.9944 66.2084 47.3122 65.8741 46.7394C65.5397 46.1665 64.9915 45.7499 64.35 45.5812C63.6906 45.4094 57.7875 43.95 54.0906 46.4437C53.3111 46.9705 52.6566 47.6619 52.1734 48.4691C51.6901 49.2763 51.3898 50.1797 51.2938 51.1156C50.6688 56.0781 55.5594 57.4937 58.4813 58.3375C62.25 59.4281 62.5812 59.875 62.475 60.7094C62.3781 61.4625 62.0813 61.7531 61.8031 61.9375C60.3656 62.8937 57.0656 62.425 55.6969 62.05C55.057 61.8718 54.3726 61.9551 53.7942 62.2815C53.2158 62.6079 52.7907 63.1508 52.6125 63.7906C52.4343 64.4305 52.5176 65.1149 52.844 65.6933C53.1704 66.2717 53.7133 66.6968 54.3531 66.875C55.903 67.281 57.4978 67.491 59.1 67.5C60.9187 67.5 62.9437 67.1875 64.5656 66.1062C65.3657 65.5741 66.0379 64.8714 66.534 64.0484C67.03 63.2255 67.3375 62.3028 67.4344 61.3469C68.125 55.9375 62.9625 54.4281 59.8719 53.5344H59.875ZM12.5 36.25V12.5C12.5 11.1739 13.0268 9.90215 13.9645 8.96447C14.9021 8.02678 16.1739 7.5 17.5 7.5H47.5C47.8284 7.49974 48.1536 7.56419 48.4571 7.68966C48.7606 7.81513 49.0364 7.99916 49.2688 8.23125L66.7688 25.7313C67.0008 25.9636 67.1849 26.2394 67.3103 26.5429C67.4358 26.8464 67.5003 27.1716 67.5 27.5V36.25C67.5 36.5815 67.3683 36.8995 67.1339 37.1339C66.8995 37.3683 66.5815 37.5 66.25 37.5H13.75C13.4185 37.5 13.1005 37.3683 12.8661 37.1339C12.6317 36.8995 12.5 36.5815 12.5 36.25ZM47.5 27.5H61.25L47.5 13.75V27.5Z" fill="#FEF7EF"/>
</svg>
