<svg width="80" height="80" viewBox="0 0 80 80" fill="none" xmlns="http://www.w3.org/2000/svg">
<mask id="mask0_389_45" style="mask-type:luminance" maskUnits="userSpaceOnUse" x="8" y="8" width="64" height="64">
<path d="M65 10H15C12.2386 10 10 12.2386 10 15V65C10 67.7614 12.2386 70 15 70H65C67.7614 70 70 67.7614 70 65V15C70 12.2386 67.7614 10 65 10Z" fill="white" stroke="white" stroke-width="4" stroke-linejoin="round"/>
<path d="M30 30C30 28.6739 30.5268 27.4021 31.4645 26.4645C32.4021 25.5268 33.6739 25 35 25H40V35H35C33.6739 35 32.4021 34.4732 31.4645 33.5355C30.5268 32.5979 30 31.3261 30 30ZM30 40C30 38.6739 30.5268 37.4021 31.4645 36.4645C32.4021 35.5268 33.6739 35 35 35H40V45H35C33.6739 45 32.4021 44.4732 31.4645 43.5355C30.5268 42.5979 30 41.3261 30 40ZM30 50C30 48.6739 30.5268 47.4021 31.4645 46.4645C32.4021 45.5268 33.6739 45 35 45H40V50C40 51.3261 39.4732 52.5978 38.5355 53.5355C37.5979 54.4732 36.3261 55 35 55C33.6739 55 32.4021 54.4732 31.4645 53.5355C30.5268 52.5978 30 51.3261 30 50ZM40 25H45C46.3261 25 47.5979 25.5268 48.5355 26.4645C49.4732 27.4021 50 28.6739 50 30C50 31.3261 49.4732 32.5979 48.5355 33.5355C47.5979 34.4732 46.3261 35 45 35H40V25Z" fill="black"/>
<path d="M40 25H35C33.6739 25 32.4021 25.5268 31.4645 26.4645C30.5268 27.4021 30 28.6739 30 30C30 31.3261 30.5268 32.5979 31.4645 33.5355C32.4021 34.4732 33.6739 35 35 35M40 25V35M40 25H45C46.3261 25 47.5979 25.5268 48.5355 26.4645C49.4732 27.4021 50 28.6739 50 30C50 31.3261 49.4732 32.5979 48.5355 33.5355C47.5979 34.4732 46.3261 35 45 35H40M40 35H35M40 35V45M35 35C33.6739 35 32.4021 35.5268 31.4645 36.4645C30.5268 37.4021 30 38.6739 30 40C30 41.3261 30.5268 42.5979 31.4645 43.5355C32.4021 44.4732 33.6739 45 35 45M40 45H35M40 45V50C40 51.3261 39.4732 52.5978 38.5355 53.5355C37.5979 54.4732 36.3261 55 35 55C33.6739 55 32.4021 54.4732 31.4645 53.5355C30.5268 52.5978 30 51.3261 30 50C30 48.6739 30.5268 47.4021 31.4645 46.4645C32.4021 45.5268 33.6739 45 35 45" stroke="black" stroke-width="4" stroke-linejoin="round"/>
<path d="M40 40C40 38.6739 40.5268 37.4021 41.4645 36.4645C42.4021 35.5268 43.6739 35 45 35C46.3261 35 47.5979 35.5268 48.5355 36.4645C49.4732 37.4021 50 38.6739 50 40C50 41.3261 49.4732 42.5979 48.5355 43.5355C47.5979 44.4732 46.3261 45 45 45C43.6739 45 42.4021 44.4732 41.4645 43.5355C40.5268 42.5979 40 41.3261 40 40Z" fill="black" stroke="black" stroke-width="4" stroke-linejoin="round"/>
</mask>
<g mask="url(#mask0_389_45)">
<path d="M0 0H80V80H0V0Z" fill="#FEF7EF"/>
</g>
</svg>
