<svg width="80" height="80" viewBox="0 0 80 80" fill="none" xmlns="http://www.w3.org/2000/svg">
<path d="M13.75 40H66.25C66.5815 40 66.8995 39.8683 67.1339 39.6339C67.3683 39.3995 67.5 39.0815 67.5 38.75V27.5C67.5003 27.1716 67.4358 26.8464 67.3103 26.5429C67.1849 26.2394 67.0008 25.9636 66.7688 25.7313L49.2688 8.23125C49.0364 7.99916 48.7606 7.81513 48.4571 7.68966C48.1536 7.56419 47.8284 7.49974 47.5 7.5H17.5C16.1739 7.5 14.9021 8.02678 13.9645 8.96447C13.0268 9.90215 12.5 11.1739 12.5 12.5V38.75C12.5 39.0815 12.6317 39.3995 12.8661 39.6339C13.1005 39.8683 13.4185 40 13.75 40ZM47.5 13.75L61.25 27.5H47.5V13.75ZM21.25 50V65C21.25 65.663 20.9866 66.2989 20.5178 66.7678C20.0489 67.2366 19.413 67.5 18.75 67.5C18.087 67.5 17.4511 67.2366 16.9822 66.7678C16.5134 66.2989 16.25 65.663 16.25 65V60H10V65C10 65.663 9.73661 66.2989 9.26777 66.7678C8.79893 67.2366 8.16304 67.5 7.5 67.5C6.83696 67.5 6.20107 67.2366 5.73223 66.7678C5.26339 66.2989 5 65.663 5 65V50C5 49.337 5.26339 48.7011 5.73223 48.2322C6.20107 47.7634 6.83696 47.5 7.5 47.5C8.16304 47.5 8.79893 47.7634 9.26777 48.2322C9.73661 48.7011 10 49.337 10 50V55H16.25V50C16.25 49.337 16.5134 48.7011 16.9822 48.2322C17.4511 47.7634 18.087 47.5 18.75 47.5C19.413 47.5 20.0489 47.7634 20.5178 48.2322C20.9866 48.7011 21.25 49.337 21.25 50ZM38.75 50C38.75 50.663 38.4866 51.2989 38.0178 51.7678C37.5489 52.2366 36.913 52.5 36.25 52.5H33.75V65C33.75 65.663 33.4866 66.2989 33.0178 66.7678C32.5489 67.2366 31.913 67.5 31.25 67.5C30.587 67.5 29.9511 67.2366 29.4822 66.7678C29.0134 66.2989 28.75 65.663 28.75 65V52.5H26.25C25.587 52.5 24.9511 52.2366 24.4822 51.7678C24.0134 51.2989 23.75 50.663 23.75 50C23.75 49.337 24.0134 48.7011 24.4822 48.2322C24.9511 47.7634 25.587 47.5 26.25 47.5H36.25C36.913 47.5 37.5489 47.7634 38.0178 48.2322C38.4866 48.7011 38.75 49.337 38.75 50ZM61.25 50V65C61.25 65.663 60.9866 66.2989 60.5178 66.7678C60.0489 67.2366 59.413 67.5 58.75 67.5C58.087 67.5 57.4511 67.2366 56.9822 66.7678C56.5134 66.2989 56.25 65.663 56.25 65V57.5L53.25 61.5C53.0171 61.8105 52.7152 62.0625 52.368 62.2361C52.0209 62.4096 51.6381 62.5 51.25 62.5C50.8619 62.5 50.4791 62.4096 50.132 62.2361C49.7848 62.0625 49.4829 61.8105 49.25 61.5L46.25 57.5V65C46.25 65.663 45.9866 66.2989 45.5178 66.7678C45.0489 67.2366 44.413 67.5 43.75 67.5C43.087 67.5 42.4511 67.2366 41.9822 66.7678C41.5134 66.2989 41.25 65.663 41.25 65V50C41.25 49.4753 41.4151 48.9639 41.7219 48.5382C42.0287 48.1126 42.4617 47.7942 42.9594 47.6283C43.4572 47.4624 43.9946 47.4573 44.4954 47.6137C44.9963 47.7702 45.4352 48.0802 45.75 48.5L51.25 55.8344L56.75 48.5C57.0648 48.0802 57.5037 47.7702 58.0046 47.6137C58.5054 47.4573 59.0428 47.4624 59.5406 47.6283C60.0383 47.7942 60.4713 48.1126 60.7781 48.5382C61.0849 48.9639 61.25 49.4753 61.25 50ZM78.75 65C78.75 65.663 78.4866 66.2989 78.0178 66.7678C77.5489 67.2366 76.913 67.5 76.25 67.5H67.5C66.837 67.5 66.2011 67.2366 65.7322 66.7678C65.2634 66.2989 65 65.663 65 65V50C65 49.337 65.2634 48.7011 65.7322 48.2322C66.2011 47.7634 66.837 47.5 67.5 47.5C68.163 47.5 68.7989 47.7634 69.2678 48.2322C69.7366 48.7011 70 49.337 70 50V62.5H76.25C76.913 62.5 77.5489 62.7634 78.0178 63.2322C78.4866 63.7011 78.75 64.337 78.75 65Z" fill="#FEF7EF"/>
</svg>
