<svg width="66" height="66" viewBox="0 0 66 66" fill="none" xmlns="http://www.w3.org/2000/svg">
<path fill-rule="evenodd" clip-rule="evenodd" d="M15.9814 3.71094C12.7265 3.71094 9.60473 5.00365 7.30267 7.30483C5.00061 9.60601 3.70669 12.7272 3.70544 15.9822V48.7182C3.70544 51.974 4.9988 55.0965 7.301 57.3987C9.6032 59.7009 12.7256 60.9942 15.9814 60.9942H48.7174C51.9724 60.993 55.0937 59.6991 57.3948 57.397C59.696 55.0949 60.9887 51.9732 60.9887 48.7182V15.9822C60.9875 12.7281 59.6942 9.60754 57.3932 7.30649C55.0921 5.00545 51.9716 3.71219 48.7174 3.71094H15.9814ZM52.2484 16.0011C52.2484 16.9388 51.8759 17.8381 51.2129 18.5012C50.5498 19.1643 49.6505 19.5368 48.7127 19.5368C47.775 19.5368 46.8757 19.1643 46.2126 18.5012C45.5495 17.8381 45.177 16.9388 45.177 16.0011C45.177 15.0634 45.5495 14.164 46.2126 13.501C46.8757 12.8379 47.775 12.4654 48.7127 12.4654C49.6505 12.4654 50.5498 12.8379 51.2129 13.501C51.8759 14.164 52.2484 15.0634 52.2484 16.0011ZM32.3542 22.5445C29.7535 22.5445 27.2594 23.5776 25.4205 25.4165C23.5815 27.2555 22.5484 29.7496 22.5484 32.3502C22.5484 34.9509 23.5815 37.445 25.4205 39.2839C27.2594 41.1228 29.7535 42.1559 32.3542 42.1559C34.9548 42.1559 37.4489 41.1228 39.2878 39.2839C41.1268 37.445 42.1599 34.9509 42.1599 32.3502C42.1599 29.7496 41.1268 27.2555 39.2878 25.4165C37.4489 23.5776 34.9548 22.5445 32.3542 22.5445ZM17.8294 32.3502C17.8294 28.4993 19.3592 24.8061 22.0823 22.083C24.8053 19.36 28.4985 17.8302 32.3494 17.8302C36.2004 17.8302 39.8936 19.36 42.6166 22.083C45.3397 24.8061 46.8694 28.4993 46.8694 32.3502C46.8694 36.2012 45.3397 39.8944 42.6166 42.6174C39.8936 45.3404 36.2004 46.8702 32.3494 46.8702C28.4985 46.8702 24.8053 45.3404 22.0823 42.6174C19.3592 39.8944 17.8294 36.2012 17.8294 32.3502Z" fill="#FEF7EF"/>
</svg>
