<svg width="60" height="60" viewBox="0 0 60 60" fill="none" xmlns="http://www.w3.org/2000/svg">
<path fill-rule="evenodd" clip-rule="evenodd" d="M50 0C52.6522 0 55.1957 1.05357 57.0711 2.92893C58.9464 4.8043 60 7.34783 60 10V50C60 52.6522 58.9464 55.1957 57.0711 57.0711C55.1957 58.9464 52.6522 60 50 60H10C7.34783 60 4.8043 58.9464 2.92893 57.0711C1.05357 55.1957 0 52.6522 0 50V10C0 7.34783 1.05357 4.8043 2.92893 2.92893C4.8043 1.05357 7.34783 0 10 0H50ZM16.6667 23.3333C15.7826 23.3333 14.9348 23.6845 14.3096 24.3096C13.6845 24.9348 13.3333 25.7826 13.3333 26.6667V43.3333C13.3333 44.2174 13.6845 45.0652 14.3096 45.6904C14.9348 46.3155 15.7826 46.6667 16.6667 46.6667C17.5507 46.6667 18.3986 46.3155 19.0237 45.6904C19.6488 45.0652 20 44.2174 20 43.3333V26.6667C20 25.7826 19.6488 24.9348 19.0237 24.3096C18.3986 23.6845 17.5507 23.3333 16.6667 23.3333ZM26.6667 20C25.7826 20 24.9348 20.3512 24.3096 20.9763C23.6845 21.6014 23.3333 22.4493 23.3333 23.3333V43.3333C23.3333 44.2174 23.6845 45.0652 24.3096 45.6904C24.9348 46.3155 25.7826 46.6667 26.6667 46.6667C27.5507 46.6667 28.3986 46.3155 29.0237 45.6904C29.6488 45.0652 30 44.2174 30 43.3333V31.1333C31.0167 29.9867 32.7333 28.64 34.6433 27.8233C35.7533 27.35 37.4233 27.1567 38.5833 27.5233C38.9682 27.621 39.3109 27.8409 39.56 28.15C39.7333 28.3833 40 28.9033 40 30V43.3333C40 44.2174 40.3512 45.0652 40.9763 45.6904C41.6014 46.3155 42.4493 46.6667 43.3333 46.6667C44.2174 46.6667 45.0652 46.3155 45.6904 45.6904C46.3155 45.0652 46.6667 44.2174 46.6667 43.3333V30C46.6667 27.7667 46.1 25.78 44.92 24.1867C43.8342 22.7419 42.3145 21.6824 40.5833 21.1633C37.5767 20.22 34.2467 20.7433 32.0233 21.6967C31.3116 22.0028 30.6182 22.3501 29.9467 22.7367C29.8069 21.9686 29.4021 21.274 28.8027 20.7739C28.2032 20.2738 27.4473 19.9999 26.6667 20ZM16.6667 13.3333C15.7826 13.3333 14.9348 13.6845 14.3096 14.3096C13.6845 14.9348 13.3333 15.7826 13.3333 16.6667C13.3333 17.5507 13.6845 18.3986 14.3096 19.0237C14.9348 19.6488 15.7826 20 16.6667 20C17.5507 20 18.3986 19.6488 19.0237 19.0237C19.6488 18.3986 20 17.5507 20 16.6667C20 15.7826 19.6488 14.9348 19.0237 14.3096C18.3986 13.6845 17.5507 13.3333 16.6667 13.3333Z" fill="#FEF7EF"/>
</svg>
