<svg width="80" height="80" viewBox="0 0 80 80" fill="none" xmlns="http://www.w3.org/2000/svg">
<path d="M32.92 30.2148C31.6733 30.2148 30.7933 30.3248 30.32 30.4348V38.7948C30.8667 38.9415 31.6 38.9782 32.52 38.9782C35.89 38.9782 37.9433 37.3282 37.9433 34.4315C37.9433 31.6815 36.0367 30.2148 32.92 30.2148Z" fill="#FEF7EF"/>
<path fill-rule="evenodd" clip-rule="evenodd" d="M22.5667 10.2752C34.1534 8.99161 45.8465 8.99161 57.4333 10.2752C63.7633 10.9818 68.8667 15.9652 69.61 22.3185C70.9831 34.0674 70.9831 45.9363 69.61 57.6852C68.8667 64.0385 63.7633 69.0218 57.4367 69.7318C45.8488 71.0157 34.1546 71.0157 22.5667 69.7318C16.2367 69.0218 11.1333 64.0385 10.39 57.6885C9.01661 45.9385 9.01661 34.0685 10.39 22.3185C11.1333 15.9652 16.2367 10.9818 22.5667 10.2752ZM30.3167 51.6685H25.8433V27.2852C27.4567 26.9918 29.6933 26.7718 32.7367 26.7718C36.0367 26.7718 38.4567 27.4685 40.0367 28.7885C41.5033 29.9985 42.4533 31.9418 42.4533 34.2518C42.4533 36.5985 41.72 38.5418 40.3267 39.8618C38.53 41.6585 35.7067 42.5018 32.5167 42.5018C31.6733 42.5018 30.9033 42.4652 30.3167 42.3552V51.6685ZM48.2167 52.0718C46.05 52.0718 44.11 51.5218 42.79 50.7885L43.67 47.5252C44.6967 48.1485 46.6367 48.8085 48.2533 48.8085C50.2333 48.8085 51.1133 48.0018 51.1133 46.8285C51.1133 45.6185 50.38 44.9952 48.18 44.2252C44.6967 43.0152 43.23 41.1085 43.2667 39.0185C43.2667 35.8652 45.8667 33.4085 50.0133 33.4085C51.9933 33.4085 53.7133 33.9218 54.7433 34.4718L53.8633 37.6618C52.7089 37.0122 51.4111 36.6594 50.0867 36.6352C48.4733 36.6352 47.5933 37.4052 47.5933 38.5052C47.5933 39.6418 48.4367 40.1918 50.71 40.9985C53.9367 42.1718 55.44 43.8218 55.4767 46.4618C55.4767 49.6885 52.9433 52.0718 48.2167 52.0718Z" fill="#FEF7EF"/>
</svg>
