<svg width="90" height="77" viewBox="0 0 90 77" fill="none" xmlns="http://www.w3.org/2000/svg">
<path fill-rule="evenodd" clip-rule="evenodd" d="M80.6775 0.526004C81.7841 0.0602555 82.9953 -0.100378 84.185 0.0608209C85.3747 0.22202 86.4995 0.699159 87.4422 1.44258C88.385 2.18599 89.1112 3.16851 89.5454 4.28786C89.9796 5.40721 90.1058 6.62248 89.9109 7.80716L79.7551 69.4104C78.7699 75.3527 72.2502 78.7604 66.8006 75.8005C62.2421 73.3242 55.4715 69.5089 49.3816 65.528C46.3366 63.5353 37.0092 57.1543 38.1555 52.6136C39.1407 48.7312 54.8133 34.142 63.769 25.4682C67.2842 22.0605 65.6811 20.0947 61.5301 23.2292C51.222 31.0119 34.6718 42.8472 29.1998 46.1788C24.3726 49.1163 21.856 49.6179 18.8469 49.1163C13.357 48.2028 8.26567 46.7878 4.1102 45.0638C-1.50507 42.7352 -1.23192 35.0152 4.10572 32.7673L80.6775 0.526004Z" fill="#313131"/>
</svg>
