<svg width="66" height="58" viewBox="0 0 66 58" fill="none" xmlns="http://www.w3.org/2000/svg">
<path fill-rule="evenodd" clip-rule="evenodd" d="M58.9005 1.31762C59.7084 0.977585 60.5927 0.860311 61.4613 0.977997C62.3298 1.09568 63.151 1.44403 63.8393 1.98678C64.5275 2.52953 65.0578 3.24684 65.3747 4.06405C65.6917 4.88126 65.7839 5.76849 65.6416 6.6334L58.2271 51.6083C57.5079 55.9466 52.7479 58.4345 48.7693 56.2735C45.4413 54.4656 40.4983 51.6802 36.0522 48.7739C33.8292 47.3191 27.0195 42.6604 27.8564 39.3454C28.5756 36.511 40.0177 25.8598 46.5561 19.5273C49.1224 17.0394 47.952 15.6042 44.9215 17.8927C37.3958 23.5746 25.3129 32.2152 21.318 34.6475C17.7938 36.7921 15.9565 37.1583 13.7596 36.7921C9.75161 36.1252 6.03455 35.0921 3.00075 33.8335C-1.09881 32.1335 -0.899392 26.4973 2.99748 24.8561L58.9005 1.31762Z" fill="#FEF7EF"/>
</svg>
